<svg width="74" height="141" viewBox="0 0 74 141" fill="none" xmlns="http://www.w3.org/2000/svg">
<path d="M42 5C42 2.23858 39.7614 0 37 0C34.2386 0 32 2.23858 32 5H42ZM33.4645 139.036C35.4171 140.988 38.5829 140.988 40.5355 139.036L72.3553 107.216C74.308 105.263 74.308 102.097 72.3553 100.145C70.4027 98.192 67.2369 98.192 65.2843 100.145L37 128.429L8.71573 100.145C6.76311 98.192 3.59728 98.192 1.64466 100.145C-0.307961 102.097 -0.307961 105.263 1.64466 107.216L33.4645 139.036ZM32 5V135.5H42V5H32Z" fill="#FCDADA"/>
</svg>
